<svg width="175" height="174" viewBox="0 0 175 174" fill="none" xmlns="http://www.w3.org/2000/svg">
<path d="M87.5 1.5C135.005 1.5 173.5 39.7877 173.5 87C173.5 134.212 135.005 172.5 87.5 172.5C39.9954 172.5 1.5 134.212 1.5 87C1.5 39.7877 39.9954 1.5 87.5 1.5Z" fill="#002646" stroke="#C4A356" stroke-width="3"/>
<path d="M87 12.75C128.007 12.75 161.25 45.9929 161.25 87C161.25 128.007 128.007 161.25 87 161.25C45.9929 161.25 12.75 128.007 12.75 87C12.75 45.9929 45.9929 12.75 87 12.75Z" fill="#002646" stroke="#C4A356" stroke-width="1.5"/>
<path d="M50.0755 77.3C48.7955 75.98 48.1555 74.2133 48.1555 72C48.1555 69.7867 48.7955 68.0267 50.0755 66.72C51.3555 65.4 53.0488 64.74 55.1555 64.74C57.2621 64.74 58.9488 65.4 60.2155 66.72C61.4955 68.0267 62.1355 69.7867 62.1355 72C62.1355 74.2133 61.4955 75.98 60.2155 77.3C58.9488 78.6067 57.2621 79.26 55.1555 79.26C53.0488 79.26 51.3555 78.6067 50.0755 77.3ZM52.3955 68.02C51.7021 69.0067 51.3555 70.3333 51.3555 72C51.3555 73.6667 51.7021 74.9933 52.3955 75.98C53.1021 76.9667 54.0221 77.46 55.1555 77.46C56.2888 77.46 57.2021 76.9667 57.8955 75.98C58.5888 74.9933 58.9355 73.6667 58.9355 72C58.9355 70.3333 58.5888 69.0067 57.8955 68.02C57.2021 67.0333 56.2888 66.54 55.1555 66.54C54.0221 66.54 53.1021 67.0333 52.3955 68.02ZM63.8414 65H66.9414L73.8614 75.22V65H75.8614V79H72.5614L65.8414 69.08V79H63.8414V65ZM77.6695 79V65H80.7695V77.2H87.1895V79H77.6695ZM92.0977 65V79H88.9977V65H92.0977ZM93.9 65H97L103.92 75.22V65H105.92V79H102.62L95.9 69.08V79H93.9V65ZM107.728 65H117.748V66.8H110.828V71.1H116.308V72.9H110.828V77.2H117.748V79H107.728V65ZM32.5141 89.74C33.3541 89.74 34.1408 89.8667 34.8741 90.12C35.6075 90.3733 36.2075 90.7 36.6741 91.1C37.1541 91.4867 37.5408 91.88 37.8341 92.28C38.1275 92.6667 38.3408 93.0467 38.4741 93.42L36.8341 94.28C36.5408 93.5467 36.0275 92.9067 35.2941 92.36C34.5608 91.8133 33.7341 91.54 32.8141 91.54C31.6408 91.54 30.6275 92.0467 29.7741 93.06C28.9208 94.06 28.4941 95.3733 28.4941 97C28.4941 98.6267 28.9208 99.9467 29.7741 100.96C30.6275 101.96 31.6408 102.46 32.8141 102.46C33.7341 102.46 34.5608 102.187 35.2941 101.64C36.0275 101.093 36.5408 100.453 36.8341 99.72L38.4741 100.58C38.3408 100.953 38.1275 101.34 37.8341 101.74C37.5408 102.127 37.1541 102.52 36.6741 102.92C36.2075 103.307 35.6075 103.627 34.8741 103.88C34.1408 104.133 33.3541 104.26 32.5141 104.26C30.3808 104.26 28.6408 103.6 27.2941 102.28C25.9608 100.96 25.2941 99.2 25.2941 97C25.2941 94.8 25.9608 93.04 27.2941 91.72C28.6408 90.4 30.3808 89.74 32.5141 89.74ZM39.2715 104L44.8915 90H48.3315L53.9515 104H50.5115L49.1915 100.72H42.7515L41.4315 104H39.2715ZM43.4715 98.92H48.4715L45.9715 92.7L43.4715 98.92ZM53.148 90H64.208V91.8H60.228V104H57.128V91.8H53.148V90ZM63.3926 104L69.0126 90H72.4526L78.0726 104H74.6326L73.3126 100.72H66.8726L65.5526 104H63.3926ZM67.5926 98.92H72.5926L70.0926 92.7L67.5926 98.92ZM79.4762 104V90H82.5762V102.2H88.9962V104H79.4762ZM91.9212 102.3C90.6412 100.98 90.0012 99.2133 90.0012 97C90.0012 94.7867 90.6412 93.0267 91.9212 91.72C93.2012 90.4 94.8945 89.74 97.0012 89.74C99.1078 89.74 100.795 90.4 102.061 91.72C103.341 93.0267 103.981 94.7867 103.981 97C103.981 99.2133 103.341 100.98 102.061 102.3C100.795 103.607 99.1078 104.26 97.0012 104.26C94.8945 104.26 93.2012 103.607 91.9212 102.3ZM94.2412 93.02C93.5478 94.0067 93.2012 95.3333 93.2012 97C93.2012 98.6667 93.5478 99.9933 94.2412 100.98C94.9478 101.967 95.8678 102.46 97.0012 102.46C98.1345 102.46 99.0478 101.967 99.7412 100.98C100.435 99.9933 100.781 98.6667 100.781 97C100.781 95.3333 100.435 94.0067 99.7412 93.02C99.0478 92.0333 98.1345 91.54 97.0012 91.54C95.8678 91.54 94.9478 92.0333 94.2412 93.02ZM107.587 102.28C106.254 100.96 105.587 99.2 105.587 97C105.587 94.8 106.254 93.04 107.587 91.72C108.934 90.4 110.674 89.74 112.807 89.74C113.647 89.74 114.434 89.8667 115.167 90.12C115.9 90.3733 116.5 90.7 116.967 91.1C117.447 91.4867 117.834 91.88 118.127 92.28C118.42 92.6667 118.634 93.0467 118.767 93.42L117.127 94.28C116.834 93.5467 116.32 92.9067 115.587 92.36C114.854 91.8133 114.027 91.54 113.107 91.54C111.934 91.54 110.92 92.0467 110.067 93.06C109.214 94.06 108.787 95.3733 108.787 97C108.787 98.6267 109.214 99.9467 110.067 100.96C110.92 101.96 111.934 102.46 113.107 102.46C113.667 102.46 114.187 102.38 114.667 102.22C115.147 102.06 115.48 101.88 115.667 101.68V98H112.847V96.2H118.767V102.1C118.274 102.58 117.494 103.06 116.427 103.54C115.374 104.02 114.167 104.26 112.807 104.26C110.674 104.26 108.934 103.6 107.587 102.28ZM130.53 102.74C129.57 103.753 128.15 104.26 126.27 104.26C124.39 104.26 122.97 103.753 122.01 102.74C121.05 101.727 120.57 100.28 120.57 98.4V90H123.67V98.68C123.67 100.92 124.757 102.04 126.93 102.04C129.103 102.04 130.19 100.92 130.19 98.68V90H131.99V98.4C131.99 100.28 131.503 101.727 130.53 102.74ZM145.813 100.08C145.813 101.293 145.259 102.293 144.153 103.08C143.059 103.867 141.486 104.26 139.433 104.26C136.193 104.26 134.179 103.187 133.393 101.04L134.953 100.08C135.926 101.627 137.359 102.4 139.253 102.4C140.253 102.4 141.013 102.233 141.533 101.9C142.066 101.553 142.333 101.1 142.333 100.54C142.333 100.1 142.166 99.7533 141.833 99.5C141.513 99.2467 141.053 99.0067 140.453 98.78L136.613 97.4C135.559 97.0133 134.853 96.5467 134.493 96C134.146 95.4533 133.973 94.7867 133.973 94C133.973 92.8667 134.493 91.8733 135.533 91.02C136.586 90.1667 138.013 89.74 139.813 89.74C141.199 89.74 142.359 90.0333 143.293 90.62C144.226 91.1933 144.873 91.9733 145.233 92.96L143.813 93.82C142.959 92.34 141.693 91.6 140.013 91.6C139.146 91.6 138.486 91.7667 138.033 92.1C137.579 92.42 137.353 92.82 137.353 93.3C137.353 93.7 137.473 94.0133 137.713 94.24C137.953 94.4667 138.386 94.6933 139.013 94.92L142.093 96.02C143.359 96.4733 144.293 97.0267 144.893 97.68C145.506 98.3333 145.813 99.1333 145.813 100.08Z" fill="#C4A356"/>
</svg>
