<svg width="48" height="34" viewBox="0 0 48 34" fill="none" xmlns="http://www.w3.org/2000/svg">
<path d="M2 30.5806L2.43622 4.20963H45.3314L45.7676 30.5806L23.8111 31.9291L2 30.5806Z" fill="#002646" stroke="#C4A356" stroke-width="3"/>
<path d="M4.69897 1.87534V28.7195C16.2536 26.5019 22.3519 29.3517 23.9567 31.0538V4.20961C18.938 0.00792205 9.02711 0.902726 4.69897 1.87534Z" fill="white" stroke="#002646"/>
<path d="M43.2145 1.81436V28.7146C31.6598 26.4924 25.5615 29.3481 23.9567 31.0538V4.15351C28.9754 -0.0569658 38.8863 0.839709 43.2145 1.81436Z" fill="white" stroke="#002646"/>
<path d="M7.495 19V11.3H9.277L11.818 16.723L14.491 11.3H16.097V19H14.392V13.984L11.928 19H10.949L8.595 13.995V19H7.495ZM17.0878 11.3H22.5988V12.29H18.7928V14.655H21.8068V15.645H18.7928V18.01H22.5988V19H17.0878V11.3ZM26.3368 11.3H28.0418L31.8478 16.921V11.3H32.9478V19H31.1328L27.4368 13.544V19H26.3368V11.3ZM39.4203 18.307C38.8923 18.8643 38.1113 19.143 37.0773 19.143C36.0433 19.143 35.2623 18.8643 34.7343 18.307C34.2063 17.7497 33.9423 16.954 33.9423 15.92V11.3H35.6473V16.074C35.6473 17.306 36.2449 17.922 37.4403 17.922C38.6356 17.922 39.2333 17.306 39.2333 16.074V11.3H40.2233V15.92C40.2233 16.954 39.9556 17.7497 39.4203 18.307Z" fill="#002646"/>
</svg>
