<svg width="32" height="36" viewBox="0 0 32 36" fill="none" xmlns="http://www.w3.org/2000/svg">
<path d="M26.0264 13.0132C26.0264 20.2002 20.2002 26.0264 13.0132 26.0264C5.82621 26.0264 -3.8147e-06 20.2002 -3.8147e-06 13.0132C-3.8147e-06 5.82622 5.82621 0 13.0132 0C20.2002 0 26.0264 5.82622 26.0264 13.0132ZM3.10105 13.0132C3.10105 18.4876 7.53888 22.9254 13.0132 22.9254C18.4875 22.9254 22.9254 18.4876 22.9254 13.0132C22.9254 7.53888 18.4875 3.10106 13.0132 3.10106C7.53888 3.10106 3.10105 7.53888 3.10105 13.0132Z" fill="#C4A356"/>
<rect x="17" y="23.9452" width="5.9489" height="14.8722" transform="rotate(-41.5431 17 23.9452)" fill="#C4A356"/>
</svg>
